<?xml version="1.0" encoding="utf-8"?><svg viewBox="0 0 177 72" xmlns="http://www.w3.org/2000/svg" xmlns:xlink="http://www.w3.org/1999/xlink"><style>:root>svg{display:none}:root>svg:target{display:block}</style><svg fill="none" viewBox="0 0 177 72" id="bg-products-bottom" xmlns="http://www.w3.org/2000/svg"><path fill="#FFDD6D" d="M0 0h9v9H0zM21 0h9v9h-9zM42 0h9v9h-9zM63 0h9v9h-9zM84 0h9v9h-9zM105 0h9v9h-9zM126 0h9v9h-9zM147 0h9v9h-9zM168 0h9v9h-9zM0 21h9v9H0zM21 21h9v9h-9zM42 21h9v9h-9zM63 21h9v9h-9zM84 21h9v9h-9zM105 21h9v9h-9zM126 21h9v9h-9zM147 21h9v9h-9zM168 21h9v9h-9zM0 42h9v9H0zM21 42h9v9h-9zM42 42h9v9h-9zM63 42h9v9h-9zM84 42h9v9h-9zM105 42h9v9h-9zM126 42h9v9h-9zM147 42h9v9h-9zM168 42h9v9h-9zM0 63h9v9H0zM21 63h9v9h-9zM42 63h9v9h-9zM63 63h9v9h-9zM84 63h9v9h-9zM105 63h9v9h-9zM126 63h9v9h-9zM147 63h9v9h-9zM168 63h9v9h-9z"/></svg><svg fill="none" viewBox="0 0 177 72" id="bg-products-top" xmlns="http://www.w3.org/2000/svg"><path fill="#949494" d="M0 0h9v9H0zM21 0h9v9h-9zM42 0h9v9h-9zM63 0h9v9h-9zM84 0h9v9h-9zM105 0h9v9h-9zM126 0h9v9h-9zM147 0h9v9h-9zM168 0h9v9h-9zM0 21h9v9H0zM21 21h9v9h-9zM42 21h9v9h-9zM63 21h9v9h-9zM84 21h9v9h-9zM105 21h9v9h-9zM126 21h9v9h-9zM147 21h9v9h-9zM168 21h9v9h-9zM0 42h9v9H0zM21 42h9v9h-9zM42 42h9v9h-9zM63 42h9v9h-9zM84 42h9v9h-9zM105 42h9v9h-9zM126 42h9v9h-9zM147 42h9v9h-9zM168 42h9v9h-9zM0 63h9v9H0zM21 63h9v9h-9zM42 63h9v9h-9zM63 63h9v9h-9zM84 63h9v9h-9zM105 63h9v9h-9zM126 63h9v9h-9zM147 63h9v9h-9zM168 63h9v9h-9z"/></svg><svg fill="none" viewBox="0 0 36 32" id="i-ad-1" xmlns="http://www.w3.org/2000/svg"><path d="M8.96 10.837a2.297 2.297 0 00-2.374.153l-5.131 3.638A3.445 3.445 0 000 17.46v12.407a1.149 1.149 0 001.149 1.149h33.697a1.15 1.15 0 00.843-.383c.224-.22.337-.53.306-.843L34.157 1.072A1.226 1.226 0 0033.008 0h-6.97a1.148 1.148 0 00-1.148 1.072l-.919 14.015h-5.82v-2.22a2.258 2.258 0 00-1.226-2.03 2.373 2.373 0 00-2.412.153l-4.289 3.063v-1.187a2.297 2.297 0 00-1.263-2.03zm22.937-8.54l.269 3.6H26.88l.23-3.6h4.786zm-5.17 5.898h5.553l1.34 20.524h-8.232l1.34-20.524zm-10.07 20.524H8.769v-2.642a1.493 1.493 0 011.532-1.532h4.824a1.493 1.493 0 011.532 1.532v2.642zm-.804-15.853v3.37a1.11 1.11 0 001.149 1.149h6.816l-.728 11.334h-4.135v-2.642a3.83 3.83 0 00-3.83-3.83h-4.824a3.83 3.83 0 00-3.83 3.83v2.642H2.297V17.461c.006-.37.174-.72.46-.957l5.17-3.638v3.37a1.112 1.112 0 00.612 1.034 1.189 1.189 0 001.187-.076l6.127-4.328z" fill="#2B2A26"/></svg><svg fill="none" viewBox="0 0 26 36" id="i-ad-2" xmlns="http://www.w3.org/2000/svg"><path d="M22.14 21.436A12.766 12.766 0 10.001 12.773c0 3.217 1.223 6.315 3.422 8.664L.04 32.434a.983.983 0 001.232 1.22l3.932-1.167 2.622 3.146a.943.943 0 00.76.367h.183a1.01 1.01 0 00.748-.682l3.001-9.804h.682l3.002 9.804c.109.345.393.605.747.682h.183a.943.943 0 00.76-.367l2.622-3.146 3.933 1.166a.983.983 0 001.232-1.218l-3.54-10.999zM8.101 33.01L6.227 30.77a.997.997 0 00-1.035-.315l-2.766.826 2.556-8.376a12.751 12.751 0 005.426 2.425L8.101 33.01zM1.967 12.772a10.815 10.815 0 1110.814 10.814A10.829 10.829 0 011.967 12.772zm18.351 17.682a.997.997 0 00-1.035.314l-1.835 2.242L15.1 25.33c1.975-.37 3.834-1.2 5.427-2.425l2.556 8.375-2.766-.825z" fill="#2B2A26"/><path d="M17.592 10.15l-2.294-.327-1.023-2.071a1.664 1.664 0 00-2.988 0l-1.023 2.07-2.294.328a1.663 1.663 0 00-.917 2.832l1.665 1.625-.394 2.28a1.652 1.652 0 002.412 1.744l2.045-1.127 2.045 1.075c.238.127.503.195.773.196.353 0 .696-.11.983-.314a1.663 1.663 0 00.656-1.626l-.393-2.28 1.664-1.626a1.667 1.667 0 00-.917-2.831v.052zm-2.49 3.408a.995.995 0 00-.276.866l.367 2.189-1.953-1.036a.956.956 0 00-.918 0l-1.953 1.035.367-2.189a.995.995 0 00-.275-.865L8.849 11.96l2.189-.314c.317-.05.59-.25.734-.538l1.01-1.992.982 1.992a.996.996 0 00.734.538l2.19.314-1.587 1.6z" fill="#2B2A26"/></svg><svg fill="none" viewBox="0 0 38 36" id="i-ad-3" xmlns="http://www.w3.org/2000/svg"><path d="M29.828 36H8.172l-1.48-1.071L0 14.41l.566-1.732L18.085 0h1.83l17.52 12.682.565 1.732-6.692 20.515L29.828 36zM9.304 32.9h19.394l5.992-18.372L19.001 3.17 3.312 14.525 9.304 32.9z" fill="#2B2A26"/><path d="M17.02 26.174l-5.256-5.565 2.268-2.123 3.875 4.102 5.836-9.258 2.637 1.648-6.908 10.957-2.453.239z" fill="#2B2A26"/></svg><svg fill="none" viewBox="0 0 44 12" id="i-arrow" xmlns="http://www.w3.org/2000/svg"><path d="M43.53 6.53a.75.75 0 000-1.06L38.757.697a.75.75 0 00-1.06 1.06L41.939 6l-4.242 4.243a.75.75 0 001.06 1.06L43.53 6.53zM0 6.75h43v-1.5H0v1.5z" fill="#000"/></svg><svg fill="none" viewBox="0 0 44 16" id="i-arrow-hover" xmlns="http://www.w3.org/2000/svg"><path d="M43.707 8.707a1 1 0 000-1.414L37.343.929a1 1 0 10-1.414 1.414L41.586 8l-5.657 5.657a1 1 0 001.414 1.414l6.364-6.364zM0 9h43V7H0v2z" fill="#FBC30A"/></svg><svg fill="none" viewBox="0 0 11 16" id="i-location" xmlns="http://www.w3.org/2000/svg"><path d="M5.255 0C2.352 0 0 2.239 0 5c0 4.774 5.255 11 5.255 11S10.51 9.774 10.51 5c0-2.761-2.353-5-5.255-5zm0 7.76c-1.567 0-2.838-1.209-2.838-2.7s1.27-2.7 2.838-2.7c1.567 0 2.838 1.209 2.838 2.7s-1.27 2.7-2.838 2.7z" fill="#2B2A26"/></svg></svg>