<svg width="177" height="72" viewBox="0 0 177 72" fill="none" xmlns="http://www.w3.org/2000/svg">
<rect width="9" height="9" fill="#FFDD6D"/>
<rect x="21" width="9" height="9" fill="#FFDD6D"/>
<rect x="42" width="9" height="9" fill="#FFDD6D"/>
<rect x="63" width="9" height="9" fill="#FFDD6D"/>
<rect x="84" width="9" height="9" fill="#FFDD6D"/>
<rect x="105" width="9" height="9" fill="#FFDD6D"/>
<rect x="126" width="9" height="9" fill="#FFDD6D"/>
<rect x="147" width="9" height="9" fill="#FFDD6D"/>
<rect x="168" width="9" height="9" fill="#FFDD6D"/>
<rect y="21" width="9" height="9" fill="#FFDD6D"/>
<rect x="21" y="21" width="9" height="9" fill="#FFDD6D"/>
<rect x="42" y="21" width="9" height="9" fill="#FFDD6D"/>
<rect x="63" y="21" width="9" height="9" fill="#FFDD6D"/>
<rect x="84" y="21" width="9" height="9" fill="#FFDD6D"/>
<rect x="105" y="21" width="9" height="9" fill="#FFDD6D"/>
<rect x="126" y="21" width="9" height="9" fill="#FFDD6D"/>
<rect x="147" y="21" width="9" height="9" fill="#FFDD6D"/>
<rect x="168" y="21" width="9" height="9" fill="#FFDD6D"/>
<rect y="42" width="9" height="9" fill="#FFDD6D"/>
<rect x="21" y="42" width="9" height="9" fill="#FFDD6D"/>
<rect x="42" y="42" width="9" height="9" fill="#FFDD6D"/>
<rect x="63" y="42" width="9" height="9" fill="#FFDD6D"/>
<rect x="84" y="42" width="9" height="9" fill="#FFDD6D"/>
<rect x="105" y="42" width="9" height="9" fill="#FFDD6D"/>
<rect x="126" y="42" width="9" height="9" fill="#FFDD6D"/>
<rect x="147" y="42" width="9" height="9" fill="#FFDD6D"/>
<rect x="168" y="42" width="9" height="9" fill="#FFDD6D"/>
<rect y="63" width="9" height="9" fill="#FFDD6D"/>
<rect x="21" y="63" width="9" height="9" fill="#FFDD6D"/>
<rect x="42" y="63" width="9" height="9" fill="#FFDD6D"/>
<rect x="63" y="63" width="9" height="9" fill="#FFDD6D"/>
<rect x="84" y="63" width="9" height="9" fill="#FFDD6D"/>
<rect x="105" y="63" width="9" height="9" fill="#FFDD6D"/>
<rect x="126" y="63" width="9" height="9" fill="#FFDD6D"/>
<rect x="147" y="63" width="9" height="9" fill="#FFDD6D"/>
<rect x="168" y="63" width="9" height="9" fill="#FFDD6D"/>
</svg>
