<svg width="34" height="29" viewBox="0 0 34 29" fill="none" xmlns="http://www.w3.org/2000/svg">
<path fill-rule="evenodd" clip-rule="evenodd" d="M21.9848 1.5H28.6445C29.6296 1.5 30.5744 1.89133 31.2709 2.58789C31.9675 3.28445 32.3588 4.2292 32.3588 5.21429V11.874C32.3587 12.3665 32.163 12.8388 31.8147 13.187L19.1991 25.8026C18.5026 26.4989 17.558 26.8901 16.5731 26.8901C15.5882 26.8901 14.6436 26.4989 13.9471 25.8026L8.05624 19.9117C7.35992 19.2152 6.96875 18.2706 6.96875 17.2857C6.96875 16.3008 7.35992 15.3562 8.05624 14.6597L20.6718 2.04414C21.02 1.69584 21.4923 1.50011 21.9848 1.5V1.5Z" stroke="#15969E" stroke-width="2" stroke-linecap="round" stroke-linejoin="round"/>
<path d="M13.7865 25.6429L10.0481 27.5112C9.58259 27.744 9.07332 27.8764 8.55335 27.8997C8.03338 27.9231 7.51431 27.8368 7.0298 27.6467C6.54528 27.4565 6.10615 27.1666 5.74086 26.7959C5.37558 26.4251 5.0923 25.9817 4.9094 25.4944L1.91012 17.4975C1.59785 16.6644 1.595 15.7469 1.90209 14.9119C2.20917 14.0768 2.80578 13.3798 3.5834 12.9475L17.5008 5.21436" stroke="#15969E" stroke-width="2" stroke-linecap="round" stroke-linejoin="round"/>
<path d="M29.5717 6.14279C29.5717 5.11712 28.7402 4.28564 27.7146 4.28564C26.6889 4.28564 25.8574 5.11712 25.8574 6.14279C25.8574 7.16846 26.6889 7.99993 27.7146 7.99993C28.7402 7.99993 29.5717 7.16846 29.5717 6.14279Z" fill="#15969E"/>
</svg>
