<svg width="35" height="29" viewBox="0 0 35 29" fill="none" xmlns="http://www.w3.org/2000/svg">
<path d="M33.3574 16.3572V21.9286C33.3574 24.3429 27.5371 27.5 20.3574 27.5C13.1777 27.5 7.35742 24.3429 7.35742 21.9286V17.2857" stroke="#15969E" stroke-width="2" stroke-linecap="round" stroke-linejoin="round"/>
<path d="M7.90234 17.7666C9.50877 19.8986 14.4766 21.8988 20.3563 21.8988C27.5361 21.8988 33.3563 18.9162 33.3563 16.3533C33.3563 14.914 31.5233 13.3373 28.6466 12.2305" stroke="#15969E" stroke-width="2" stroke-linecap="round" stroke-linejoin="round"/>
<path d="M27.7852 7.07153V12.643C27.7852 15.0572 21.9649 18.2144 14.7852 18.2144C7.60544 18.2144 1.78516 15.0572 1.78516 12.643V7.07153" stroke="#15969E" stroke-width="2" stroke-linecap="round" stroke-linejoin="round"/>
<path fill-rule="evenodd" clip-rule="evenodd" d="M14.7852 12.6131C21.9649 12.6131 27.7852 9.63057 27.7852 7.06771C27.7852 4.503 21.9649 1.5 14.7852 1.5C7.60544 1.5 1.78516 4.503 1.78516 7.06771C1.78516 9.63057 7.60544 12.6131 14.7852 12.6131Z" stroke="#15969E" stroke-width="2" stroke-linecap="round" stroke-linejoin="round"/>
</svg>
