<svg width="36" height="32" viewBox="0 0 36 32" fill="none" xmlns="http://www.w3.org/2000/svg">
<path d="M8.96038 10.8368C8.5883 10.6432 8.17054 10.5553 7.75199 10.5823C7.33343 10.6092 6.93035 10.7503 6.58633 10.9901L1.45497 14.6278C0.536363 15.278 -0.00690831 16.3359 6.63502e-05 17.4613V29.868C6.63502e-05 30.1728 0.121063 30.465 0.336354 30.6803C0.551905 30.8958 0.844123 31.0168 1.1489 31.0168H34.8461C35.1682 31.0128 35.4738 30.8739 35.6885 30.6338C35.9134 30.4142 36.0261 30.1041 35.9949 29.7914L34.1569 1.07218C34.1214 0.787181 33.987 0.523819 33.7771 0.327743C33.5671 0.131686 33.295 0.0157633 33.0081 1.9314e-06H26.0389C25.747 -0.000532314 25.4657 0.109784 25.2526 0.309041C25.0391 0.508037 24.9096 0.781013 24.8901 1.07215L23.971 15.0871H18.1505V12.8662C18.1545 12.4476 18.0418 12.0362 17.8255 11.6778C17.6091 11.3193 17.2974 11.0282 16.9253 10.8367C16.5463 10.6438 16.1224 10.5562 15.6982 10.5832C15.2738 10.6102 14.8644 10.7507 14.5128 10.99L10.2242 14.0534V12.8662C10.2202 12.4444 10.1 12.032 9.8772 11.6741C9.65417 11.3161 9.33712 11.0263 8.96051 10.8367L8.96038 10.8368ZM31.8974 2.29765L32.1656 5.89718H26.8812L27.1109 2.29765H31.8974ZM26.7278 8.19451H32.2801L33.6205 28.7192H25.3877L26.7278 8.19451ZM16.657 28.7192H8.76878V26.0769C8.7581 25.6677 8.91622 25.2719 9.20577 24.9823C9.49531 24.6925 9.89113 24.5346 10.3006 24.5453H15.1254C15.5349 24.5346 15.9307 24.6925 16.2203 24.9823C16.5098 25.2719 16.6677 25.6677 16.657 26.0769L16.657 28.7192ZM15.853 12.8662V16.236C15.842 16.5437 15.9596 16.8423 16.1775 17.0603C16.3952 17.278 16.6938 17.3955 17.0018 17.3848H23.8178L23.0902 28.7193H18.9547V26.0771C18.9547 25.0615 18.5513 24.0876 17.8331 23.3694C17.1151 22.6514 16.141 22.2478 15.1254 22.2478H10.3007C9.28491 22.2478 8.31099 22.6514 7.59301 23.3694C6.87476 24.0876 6.47146 25.0615 6.47146 26.0771V28.7193H2.2974V17.4614C2.30274 17.0904 2.47076 16.7402 2.75709 16.5041L7.92668 12.8664V16.2362H7.92641C7.91867 16.449 7.97236 16.6598 8.0808 16.843C8.18951 17.0265 8.34871 17.1745 8.53915 17.2701C8.72639 17.3628 8.93446 17.4045 9.14308 17.3911C9.35142 17.3778 9.55255 17.3094 9.72616 17.1935L15.853 12.8662Z" fill="#2B2A26"/>
</svg>
