<svg width="26" height="36" viewBox="0 0 26 36" fill="none" xmlns="http://www.w3.org/2000/svg">
<path d="M22.1402 21.4365C24.0298 19.3939 25.2001 16.79 25.4734 14.0212C25.7469 11.2522 25.1082 8.46968 23.6544 6.09731C22.2008 3.7247 20.012 1.89222 17.4211 0.878119C14.8299 -0.135982 11.9784 -0.275825 9.30094 0.479909C6.62318 1.23567 4.26549 2.84547 2.58663 5.06445C0.90807 7.28343 0.000179344 9.98987 0.00130288 12.7726C0.000717741 15.9902 1.22371 19.0878 3.42254 21.4373L0.0405518 32.4345C-0.0624388 32.7821 0.0341148 33.158 0.291886 33.4128C0.549363 33.6677 0.926511 33.7601 1.27296 33.6534L5.20532 32.4868L7.8269 35.6327C8.00831 35.868 8.29006 36.004 8.58701 35.9999H8.77046C9.12361 35.9227 9.40859 35.6628 9.51773 35.3182L12.5194 25.5135H13.2011L16.2027 35.3182C16.3116 35.6628 16.5965 35.9227 16.9497 35.9999H17.1334C17.4304 36.004 17.7122 35.868 17.8935 35.6327L20.5151 32.4868L24.4475 33.6534C24.7939 33.7601 25.1708 33.6677 25.4286 33.4128C25.6864 33.158 25.7826 32.782 25.6796 32.4345L22.1402 21.4365ZM8.1013 33.0104L6.22703 30.7689C5.97394 30.4696 5.56841 30.3464 5.19158 30.4544L2.42574 31.28L4.98178 22.9045C6.57435 24.129 8.43372 24.9598 10.4084 25.3294L8.1013 33.0104ZM1.96696 12.7718C1.96696 9.90391 3.1063 7.15328 5.1342 5.12508C7.1624 3.09717 9.91304 1.95783 12.781 1.95783C15.6489 1.95783 18.3995 3.09717 20.4277 5.12508C22.4556 7.15328 23.595 9.90391 23.595 12.7718C23.595 15.6398 22.4556 18.3904 20.4277 20.4186C18.3995 22.4465 15.6489 23.5859 12.781 23.5859C9.91394 23.5823 7.16533 22.4419 5.13795 20.4148C3.11094 18.3875 1.97041 15.6389 1.96689 12.7718L1.96696 12.7718ZM20.318 30.454C19.9409 30.3461 19.5357 30.4692 19.2826 30.7685L17.4475 33.0101L15.1012 25.3288C17.0756 24.9593 18.935 24.1284 20.5278 22.9039L23.0838 31.2795L20.318 30.454Z" fill="#2B2A26"/>
<path d="M17.5917 10.1503L15.2978 9.8226L14.2755 7.75171H14.2753C14.0915 7.3772 13.7738 7.08549 13.3852 6.93422C12.9966 6.78267 12.5654 6.78267 12.1768 6.93422C11.7882 7.08549 11.4705 7.3772 11.2867 7.75171L10.2645 9.8226L7.97029 10.1503C7.56126 10.2126 7.18996 10.4253 6.9293 10.7466C6.66831 11.0679 6.53635 11.4748 6.55918 11.8879C6.58229 12.3011 6.75813 12.6911 7.05277 12.9817L8.71762 14.607L8.32438 16.8877C8.25094 17.2979 8.3355 17.7207 8.5605 18.0712C8.78579 18.4217 9.13514 18.6742 9.53864 18.7781C9.94212 18.882 10.3699 18.8293 10.7362 18.6312L12.7811 17.5039L14.826 18.5789V18.5786C15.0639 18.7064 15.3292 18.774 15.5993 18.7752C15.9518 18.7755 16.2953 18.6655 16.5824 18.4607C16.8319 18.2775 17.0256 18.0285 17.1412 17.7412C17.2571 17.4542 17.2904 17.1405 17.2378 16.8353L16.8445 14.5546L18.5094 12.9293C18.804 12.6388 18.9799 12.2488 19.003 11.8356C19.0258 11.4222 18.8938 11.0155 18.6328 10.6942C18.3722 10.373 18.0009 10.1603 17.5919 10.0979L17.5917 10.1503ZM15.1012 13.5584C14.8756 13.7857 14.7732 14.1075 14.8259 14.4235L15.1928 16.6127L13.2398 15.5773V15.577C12.9539 15.4207 12.6081 15.4207 12.3222 15.577L10.3692 16.6124L10.7361 14.4233V14.4235C10.7888 14.1075 10.6864 13.7857 10.4608 13.5584L8.84868 11.959L11.0378 11.6445C11.3547 11.5942 11.628 11.3941 11.7717 11.107L12.7811 9.11478L13.7642 11.1073V11.107C13.9082 11.3941 14.1811 11.5942 14.4983 11.6445L16.6875 11.959L15.1012 13.5584Z" fill="#2B2A26"/>
</svg>
