<svg width="25" height="33" viewBox="0 0 25 33" fill="none" xmlns="http://www.w3.org/2000/svg">
<path fill-rule="evenodd" clip-rule="evenodd" d="M12.5003 31.4314L13.6721 30.111C15.0019 28.5881 16.1979 27.1433 17.262 25.769L18.1404 24.6101C21.8083 19.6683 23.6431 15.746 23.6431 12.847C23.6431 6.65897 18.6549 1.64282 12.5003 1.64282C6.34571 1.64282 1.35742 6.65897 1.35742 12.847C1.35742 15.746 3.19228 19.6683 6.86014 24.6101L7.73857 25.769C9.25666 27.7141 10.845 29.6035 12.5003 31.4333V31.4314Z" stroke="#15969E" stroke-width="2" stroke-linecap="round" stroke-linejoin="round"/>
<path d="M12.5003 17.4285C15.0645 17.4285 17.1431 15.3499 17.1431 12.7857C17.1431 10.2215 15.0645 8.14282 12.5003 8.14282C9.9361 8.14282 7.85742 10.2215 7.85742 12.7857C7.85742 15.3499 9.9361 17.4285 12.5003 17.4285Z" stroke="#15969E" stroke-width="2" stroke-linecap="round" stroke-linejoin="round"/>
</svg>
