<svg width="10" height="12" viewBox="0 0 10 12" fill="none" xmlns="http://www.w3.org/2000/svg">
<path d="M5.00033 0.166626C2.74283 0.166626 0.916992 1.99246 0.916992 4.24996C0.916992 7.31246 5.00033 11.8333 5.00033 11.8333C5.00033 11.8333 9.08366 7.31246 9.08366 4.24996C9.08366 1.99246 7.25783 0.166626 5.00033 0.166626ZM2.08366 4.24996C2.08366 2.63996 3.39033 1.33329 5.00033 1.33329C6.61033 1.33329 7.91699 2.63996 7.91699 4.24996C7.91699 5.92996 6.23699 8.44413 5.00033 10.0133C3.78699 8.45579 2.08366 5.91246 2.08366 4.24996Z" fill="white"/>
<path d="M5.00033 5.70829C5.80574 5.70829 6.45866 5.05537 6.45866 4.24996C6.45866 3.44454 5.80574 2.79163 5.00033 2.79163C4.19491 2.79163 3.54199 3.44454 3.54199 4.24996C3.54199 5.05537 4.19491 5.70829 5.00033 5.70829Z" fill="white"/>
</svg>
