<svg width="24" height="24" viewBox="0 0 24 24" fill="none" xmlns="http://www.w3.org/2000/svg">
<circle cx="12" cy="12" r="11.5" stroke="#2B2A26"/>
<path d="M6.08424 7C5.87109 7 5.67547 7.06345 5.5082 7.16786L11.9229 12.5452C12.2166 12.7916 12.6124 12.7916 12.9054 12.5452L19.3088 7.16786C19.1416 7.06345 18.946 7 18.7328 7H6.08407H6.08424ZM5.06214 7.72178C5.02345 7.83231 5 7.95021 5 8.07423V15.2364C5 15.4521 5.06542 15.6503 5.17508 15.8183L9.76605 11.6722L5.06214 7.72178ZM19.755 7.72178L15.0624 11.6667L19.6421 15.8185C19.7517 15.6505 19.8171 15.4523 19.8171 15.2366V8.07448C19.8171 7.95046 19.7937 7.83255 19.755 7.72203V7.72178ZM14.5093 12.1364L13.3686 13.0933C12.8169 13.557 12.0061 13.5564 11.4544 13.0933L10.3194 12.142L5.76227 16.2603C5.86424 16.2915 5.97151 16.3106 6.08419 16.3106H18.7329C18.8455 16.3106 18.9529 16.2915 19.0548 16.2603L14.5094 12.1363L14.5093 12.1364Z" fill="#2B2A26"/>
</svg>
