<svg width="14" height="14" viewBox="0 0 14 14" fill="none" xmlns="http://www.w3.org/2000/svg">
<path d="M3.67711 11.5458L4.18391 11.8419C5.03856 12.3403 6.01062 12.602 7 12.6C8.10758 12.6 9.19028 12.2716 10.1112 11.6562C11.0321 11.0409 11.7499 10.1663 12.1737 9.14302C12.5976 8.11975 12.7085 6.99378 12.4924 5.90749C12.2763 4.8212 11.743 3.82337 10.9598 3.0402C10.1766 2.25703 9.1788 1.72368 8.09251 1.5076C7.00622 1.29152 5.88024 1.40242 4.85698 1.82627C3.83371 2.25012 2.95911 2.96789 2.34378 3.8888C1.72844 4.80972 1.40001 5.89242 1.40001 7C1.39797 7.9897 1.6599 8.96204 2.15881 9.81679L2.45421 10.3236L1.99711 12.0043L3.67711 11.5458ZM0.00280936 14L0.949209 10.5224C0.325606 9.45339 -0.00202344 8.23759 9.40256e-06 7C9.40256e-06 3.1339 3.13391 0 7 0C10.8661 0 14 3.1339 14 7C14 10.8661 10.8661 14 7 14C5.76295 14.002 4.54767 13.6746 3.47901 13.0515L0.00280936 14ZM4.47371 3.7156C4.56751 3.7086 4.66201 3.7086 4.75581 3.7128C4.79361 3.7156 4.83141 3.7198 4.86921 3.724C4.98051 3.7366 5.10301 3.8045 5.14431 3.8983C5.35291 4.3715 5.55591 4.8482 5.75191 5.3263C5.79531 5.4327 5.7694 5.5692 5.68681 5.7022C5.63 5.79213 5.56855 5.87905 5.50271 5.9626C5.42361 6.0641 5.25351 6.2503 5.25351 6.2503C5.25351 6.2503 5.18421 6.3329 5.21081 6.4358C5.22061 6.475 5.25281 6.5317 5.28221 6.5793L5.32351 6.6458C5.50271 6.9447 5.74351 7.2478 6.03751 7.53339C6.12151 7.61459 6.2034 7.69789 6.2916 7.77559C6.6192 8.06469 6.9902 8.30059 7.3906 8.47559L7.3941 8.47699C7.4536 8.50289 7.4837 8.51689 7.5705 8.55399C7.6139 8.57219 7.6587 8.58829 7.7042 8.60019C7.75122 8.61217 7.80074 8.60991 7.84648 8.59371C7.89221 8.57751 7.93211 8.5481 7.9611 8.50919C8.4679 7.89529 8.5141 7.85539 8.5183 7.85539V7.85679C8.55351 7.82396 8.59534 7.79903 8.64098 7.7837C8.68662 7.76836 8.73501 7.76298 8.7829 7.76789C8.8249 7.77069 8.8676 7.77839 8.9068 7.79589C9.2785 7.96599 9.8868 8.23129 9.8868 8.23129L10.2942 8.41399C10.3628 8.44689 10.4251 8.52459 10.4272 8.59949C10.43 8.64639 10.4342 8.72199 10.4181 8.86059C10.3957 9.04189 10.3411 9.25959 10.2865 9.37369C10.2491 9.45156 10.1995 9.52293 10.1395 9.58509C10.0689 9.65926 9.99154 9.72674 9.9085 9.78669C9.87978 9.8083 9.8506 9.8293 9.821 9.84969C9.73394 9.90493 9.64448 9.95632 9.5529 10.0037C9.37268 10.0994 9.17362 10.1544 8.9698 10.1647C8.8403 10.1717 8.7108 10.1815 8.5806 10.1745C8.575 10.1745 8.183 10.1136 8.183 10.1136C7.18778 9.85182 6.26738 9.36142 5.49501 8.68139C5.33681 8.54209 5.19051 8.39229 5.04071 8.24319C4.41771 7.62369 3.94731 6.9552 3.66171 6.3238C3.51553 6.0139 3.43656 5.67658 3.43001 5.334C3.42712 4.90899 3.56605 4.49516 3.82481 4.158C3.87591 4.0922 3.92421 4.0236 4.00751 3.9445C4.09641 3.8605 4.15241 3.8157 4.21331 3.7849C4.29428 3.74432 4.38261 3.72051 4.47301 3.7149L4.47371 3.7156Z" fill="#27AB3C"/>
</svg>
