<svg width="26" height="27" viewBox="0 0 26 27" fill="none" xmlns="http://www.w3.org/2000/svg">
<path d="M3.65914 20.5338L4.14174 20.6646C4.18367 20.5099 4.14886 20.3444 4.04814 20.2197L3.65914 20.5338ZM2.20907 25.8846L1.72648 25.7538C1.68005 25.9251 1.72794 26.1082 1.85232 26.2349C1.9767 26.3616 2.15891 26.4128 2.33107 26.3695L2.20907 25.8846ZM8.77109 24.2336L8.94732 23.7657C8.85197 23.7298 8.74791 23.7239 8.6491 23.7487L8.77109 24.2336ZM1.5 13C1.5 6.64873 6.64873 1.5 13 1.5V0.5C6.09644 0.5 0.5 6.09644 0.5 13H1.5ZM4.04814 20.2197C2.45414 18.2458 1.5 15.735 1.5 13H0.5C0.5 15.9718 1.53772 18.7027 3.27015 20.8479L4.04814 20.2197ZM2.69166 26.0154L4.14174 20.6646L3.17655 20.403L1.72648 25.7538L2.69166 26.0154ZM8.6491 23.7487L2.08708 25.3997L2.33107 26.3695L8.89309 24.7185L8.6491 23.7487ZM13 24.5C11.5726 24.5 10.2071 24.2402 8.94732 23.7657L8.59486 24.7015C9.96557 25.2178 11.4504 25.5 13 25.5V24.5ZM24.5 13C24.5 19.3513 19.3513 24.5 13 24.5V25.5C19.9036 25.5 25.5 19.9036 25.5 13H24.5ZM13 1.5C19.3513 1.5 24.5 6.64873 24.5 13H25.5C25.5 6.09644 19.9036 0.5 13 0.5V1.5Z" fill="#2B2A26"/>
<circle cx="6.25" cy="13.25" r="2.25" fill="#2B2A26"/>
<circle cx="13.25" cy="13.25" r="2.25" fill="#2B2A26"/>
<circle cx="20.25" cy="13.25" r="2.25" fill="#2B2A26"/>
</svg>
