<svg width="14" height="14" viewBox="0 0 14 14" fill="none" xmlns="http://www.w3.org/2000/svg">
<path d="M13.2222 9.72222C12.25 9.72222 11.3167 9.56667 10.4456 9.27889C10.3678 9.25556 10.2822 9.24 10.2044 9.24C10.0022 9.24 9.80778 9.31778 9.65222 9.46556L7.94111 11.1767C5.73315 10.0537 3.9385 8.25908 2.81556 6.05111L4.52667 4.33222C4.62968 4.23449 4.70269 4.1094 4.73713 3.97164C4.77157 3.83388 4.76601 3.68916 4.72111 3.55444C4.42606 2.65849 4.27639 1.72106 4.27778 0.777778C4.27778 0.35 3.92778 0 3.5 0H0.777778C0.35 0 0 0.35 0 0.777778C0 8.08111 5.91889 14 13.2222 14C13.65 14 14 13.65 14 13.2222V10.5C14 10.0722 13.65 9.72222 13.2222 9.72222ZM1.57889 1.55556H2.74556C2.8 2.24 2.91667 2.91667 3.09556 3.56222L2.16222 4.50333C1.85111 3.56222 1.64889 2.58222 1.57889 1.55556ZM12.4444 12.4211C11.4178 12.3511 10.4222 12.1489 9.48889 11.83L10.4222 10.8967C11.0833 11.0833 11.76 11.2 12.4444 11.2467V12.4211ZM11.6667 2.33333V0H10.1111V2.33333H7.77778V3.88889H10.1111V6.22222H11.6667V3.88889H14V2.33333H11.6667Z" fill="#15969E"/>
</svg>
