<svg width="24" height="24" viewBox="0 0 24 24" fill="none" xmlns="http://www.w3.org/2000/svg">
<circle cx="12" cy="12" r="11.5" stroke="#2B2A26"/>
<path d="M17.9417 16.3643L17.8768 16.1668C17.7245 15.7126 17.2224 15.2386 16.7597 15.1116L15.0517 14.6446C14.589 14.5191 13.9289 14.6884 13.5891 15.0284L12.9713 15.6463C10.7258 15.0382 8.96412 13.2762 8.35759 11.0303L8.9754 10.4124C9.31391 10.0738 9.48317 9.41362 9.35765 8.9495L8.89212 7.24109C8.7666 6.77837 8.28984 6.27615 7.83569 6.12379L7.64102 6.05887C7.18543 5.90651 6.53521 6.06027 6.1967 6.40029L5.27142 7.32573C5.10641 7.48938 5.00061 7.96059 5.00061 7.96059C4.96956 10.8978 6.12055 13.7263 8.19677 15.8043C10.2673 17.8752 13.0855 19.025 16.0122 18.9996C16.0277 18.9996 16.5115 18.8966 16.6765 18.7315L17.6018 17.8061C17.9403 17.4689 18.0926 16.8186 17.9417 16.3643Z" fill="#2B2A26"/>
</svg>
