<svg width="18" height="18" viewBox="0 0 18 18" fill="none" xmlns="http://www.w3.org/2000/svg">
<path d="M11.1046 0.166626C9.80925 0.166598 8.54106 0.538156 7.45052 1.23722C6.35997 1.93628 5.49284 2.9335 4.95201 4.11056C4.41118 5.28762 4.21935 6.59512 4.39927 7.87793C4.5792 9.16075 5.12334 10.365 5.96712 11.3479L0.0879524 17.227L0.824412 17.9635L6.70462 12.0833C7.53392 12.7925 8.52234 13.2907 9.58569 13.5356C10.649 13.7805 11.7558 13.7647 12.8118 13.4897C13.8677 13.2146 14.8416 12.6885 15.6503 11.956C16.4591 11.2235 17.0789 10.3063 17.4568 9.2827C17.8348 8.25907 17.9598 7.15925 17.8211 6.07691C17.6824 4.99458 17.2842 3.9618 16.6603 3.06653C16.0365 2.17126 15.2055 1.44002 14.2382 0.935105C13.2708 0.430186 12.1958 0.166542 11.1046 0.166626V0.166626ZM11.1046 1.20829C12.6241 1.20829 14.0813 1.8119 15.1558 2.88633C16.2302 3.96075 16.8338 5.41799 16.8338 6.93746C16.8338 8.45693 16.2302 9.91417 15.1558 10.9886C14.0813 12.063 12.6241 12.6666 11.1046 12.6666C9.58515 12.6666 8.12791 12.063 7.05349 10.9886C5.97906 9.91417 5.37545 8.45693 5.37545 6.93746C5.37545 5.41799 5.97906 3.96075 7.05349 2.88633C8.12791 1.8119 9.58515 1.20829 11.1046 1.20829Z" fill="#5A5A5A"/>
</svg>
