<?xml version="1.0" encoding="utf-8"?><svg viewBox="0 0 35 33" xmlns="http://www.w3.org/2000/svg" xmlns:xlink="http://www.w3.org/1999/xlink"><style>:root>svg{display:none}:root>svg:target{display:block}</style><svg fill="none" viewBox="0 0 34 29" id="i-ad-1" xmlns="http://www.w3.org/2000/svg"><path clip-rule="evenodd" d="M21.985 1.5h6.66a3.714 3.714 0 013.714 3.714v6.66c0 .492-.196.965-.544 1.313L19.199 25.803a3.714 3.714 0 01-5.252 0l-5.89-5.891a3.714 3.714 0 010-5.252L20.671 2.044c.348-.348.82-.544 1.313-.544v0z" stroke="#15969E" stroke-width="2" stroke-linecap="round" stroke-linejoin="round"/><path d="M13.787 25.643l-3.739 1.868a3.714 3.714 0 01-5.139-2.017L1.91 17.497a3.714 3.714 0 011.673-4.55l13.918-7.733" stroke="#15969E" stroke-width="2" stroke-linecap="round" stroke-linejoin="round"/><path d="M29.572 6.143a1.857 1.857 0 10-3.715 0 1.857 1.857 0 003.715 0z" fill="#15969E"/></svg><svg fill="none" viewBox="0 0 35 29" id="i-ad-2" xmlns="http://www.w3.org/2000/svg"><path d="M33.357 16.357v5.572c0 2.414-5.82 5.571-13 5.571s-13-3.157-13-5.571v-4.643" stroke="#15969E" stroke-width="2" stroke-linecap="round" stroke-linejoin="round"/><path d="M7.902 17.767c1.607 2.132 6.575 4.132 12.454 4.132 7.18 0 13-2.983 13-5.546 0-1.439-1.833-3.016-4.71-4.123" stroke="#15969E" stroke-width="2" stroke-linecap="round" stroke-linejoin="round"/><path d="M27.785 7.072v5.571c0 2.414-5.82 5.571-13 5.571s-13-3.157-13-5.571V7.072" stroke="#15969E" stroke-width="2" stroke-linecap="round" stroke-linejoin="round"/><path clip-rule="evenodd" d="M14.785 12.613c7.18 0 13-2.982 13-5.545 0-2.565-5.82-5.568-13-5.568s-13 3.003-13 5.568c0 2.563 5.82 5.545 13 5.545z" stroke="#15969E" stroke-width="2" stroke-linecap="round" stroke-linejoin="round"/></svg><svg fill="none" viewBox="0 0 25 33" id="i-ad-3" xmlns="http://www.w3.org/2000/svg"><path clip-rule="evenodd" d="M12.5 31.431l1.172-1.32a95.991 95.991 0 003.59-4.342l.878-1.159c3.668-4.942 5.503-8.864 5.503-11.763 0-6.188-4.988-11.204-11.143-11.204-6.154 0-11.143 5.016-11.143 11.204 0 2.899 1.835 6.821 5.503 11.763l.879 1.159a101.878 101.878 0 004.761 5.664v-.002z" stroke="#15969E" stroke-width="2" stroke-linecap="round" stroke-linejoin="round"/><path d="M12.5 17.428a4.643 4.643 0 100-9.285 4.643 4.643 0 000 9.285z" stroke="#15969E" stroke-width="2" stroke-linecap="round" stroke-linejoin="round"/></svg><svg fill="none" viewBox="0 0 33 33" id="i-ad-4" xmlns="http://www.w3.org/2000/svg"><path d="M1.643 16.5L16.5 23.928 31.388 16.5M1.643 23.928l14.857 7.43 14.888-7.43M1.643 9.364L16.515 16.5l14.873-7.137-14.873-7.72-14.872 7.72z" stroke="#15969E" stroke-width="2" stroke-linecap="round" stroke-linejoin="round"/></svg><svg fill="none" viewBox="0 0 11 16" id="i-location" xmlns="http://www.w3.org/2000/svg"><path d="M5.255 0C2.352 0 0 2.239 0 5c0 4.774 5.255 11 5.255 11S10.51 9.774 10.51 5c0-2.761-2.353-5-5.255-5zm0 7.76c-1.567 0-2.838-1.209-2.838-2.7s1.27-2.7 2.838-2.7c1.567 0 2.838 1.209 2.838 2.7s-1.27 2.7-2.838 2.7z" fill="#2B2A26"/></svg><svg fill="none" viewBox="0 0 24 24" id="i-mail" xmlns="http://www.w3.org/2000/svg"><circle cx="12" cy="12" r="11.5" stroke="#2B2A26"/><path d="M6.084 7c-.213 0-.409.063-.576.168l6.415 5.377c.294.247.69.247.982 0l6.404-5.377A1.082 1.082 0 0018.733 7H6.084zm-1.022.722c-.039.11-.062.228-.062.352v7.162c0 .216.065.414.175.582l4.591-4.146-4.704-3.95zm14.693 0l-4.693 3.945 4.58 4.152c.11-.169.175-.367.175-.582V8.074c0-.124-.023-.241-.062-.352zm-5.246 4.414l-1.14.957a1.492 1.492 0 01-1.915 0l-1.135-.951-4.557 4.118c.102.031.21.05.322.05h12.649c.113 0 .22-.018.322-.05l-4.546-4.124z" fill="#2B2A26"/></svg><svg fill="none" viewBox="0 0 26 27" id="i-message" xmlns="http://www.w3.org/2000/svg"><path d="M3.66 20.534l.482.13a.5.5 0 00-.094-.444l-.389.314zm-1.45 5.35l-.484-.13a.5.5 0 00.605.615l-.122-.484zm6.561-1.65l.176-.468a.5.5 0 00-.298-.017l.122.485zM1.5 13C1.5 6.649 6.649 1.5 13 1.5v-1C6.096.5.5 6.096.5 13h1zm2.548 7.22A11.45 11.45 0 011.5 13h-1a12.45 12.45 0 002.77 7.848l.778-.628zm-1.356 5.795l1.45-5.35-.965-.262-1.45 5.35.965.262zm5.957-2.266l-6.562 1.65.244.97 6.562-1.65-.244-.97zM13 24.5c-1.427 0-2.793-.26-4.053-.734l-.352.936c1.37.516 2.855.798 4.405.798v-1zM24.5 13c0 6.351-5.149 11.5-11.5 11.5v1c6.904 0 12.5-5.596 12.5-12.5h-1zM13 1.5c6.351 0 11.5 5.149 11.5 11.5h1C25.5 6.096 19.904.5 13 .5v1z" fill="#2B2A26"/><circle cx="6.25" cy="13.25" r="2.25" fill="#2B2A26"/><circle cx="13.25" cy="13.25" r="2.25" fill="#2B2A26"/><circle cx="20.25" cy="13.25" r="2.25" fill="#2B2A26"/></svg><svg fill="none" viewBox="0 0 24 24" id="i-phone" xmlns="http://www.w3.org/2000/svg"><circle cx="12" cy="12" r="11.5" stroke="#2B2A26"/><path d="M17.942 16.364l-.065-.197c-.152-.454-.655-.928-1.117-1.055l-1.708-.467c-.463-.126-1.123.043-1.463.383l-.618.618a6.562 6.562 0 01-4.613-4.616l.617-.618c.339-.338.508-.998.383-1.463l-.466-1.708c-.125-.463-.602-.965-1.056-1.117l-.195-.065c-.456-.152-1.106.001-1.444.341l-.926.926c-.165.163-.27.635-.27.635a10.935 10.935 0 003.196 7.843A10.919 10.919 0 0016.012 19c.016 0 .5-.103.665-.268l.925-.926c.338-.337.49-.987.34-1.442z" fill="#2B2A26"/></svg></svg>