<?xml version="1.0" encoding="utf-8"?><svg viewBox="0 0 35 33" xmlns="http://www.w3.org/2000/svg" xmlns:xlink="http://www.w3.org/1999/xlink"><style>:root>svg{display:none}:root>svg:target{display:block}</style><svg fill="none" viewBox="0 0 34 29" id="i-ad-1" xmlns="http://www.w3.org/2000/svg"><path clip-rule="evenodd" d="M21.985 1.5h6.66a3.714 3.714 0 013.714 3.714v6.66c0 .492-.196.965-.544 1.313L19.199 25.803a3.714 3.714 0 01-5.252 0l-5.89-5.891a3.714 3.714 0 010-5.252L20.671 2.044c.348-.348.82-.544 1.313-.544v0z" stroke="#15969E" stroke-width="2" stroke-linecap="round" stroke-linejoin="round"/><path d="M13.787 25.643l-3.739 1.868a3.714 3.714 0 01-5.139-2.017L1.91 17.497a3.714 3.714 0 011.673-4.55l13.918-7.733" stroke="#15969E" stroke-width="2" stroke-linecap="round" stroke-linejoin="round"/><path d="M29.572 6.143a1.857 1.857 0 10-3.715 0 1.857 1.857 0 003.715 0z" fill="#15969E"/></svg><svg fill="none" viewBox="0 0 35 29" id="i-ad-2" xmlns="http://www.w3.org/2000/svg"><path d="M33.357 16.357v5.572c0 2.414-5.82 5.571-13 5.571s-13-3.157-13-5.571v-4.643" stroke="#15969E" stroke-width="2" stroke-linecap="round" stroke-linejoin="round"/><path d="M7.902 17.767c1.607 2.132 6.575 4.132 12.454 4.132 7.18 0 13-2.983 13-5.546 0-1.439-1.833-3.016-4.71-4.123" stroke="#15969E" stroke-width="2" stroke-linecap="round" stroke-linejoin="round"/><path d="M27.785 7.072v5.571c0 2.414-5.82 5.571-13 5.571s-13-3.157-13-5.571V7.072" stroke="#15969E" stroke-width="2" stroke-linecap="round" stroke-linejoin="round"/><path clip-rule="evenodd" d="M14.785 12.613c7.18 0 13-2.982 13-5.545 0-2.565-5.82-5.568-13-5.568s-13 3.003-13 5.568c0 2.563 5.82 5.545 13 5.545z" stroke="#15969E" stroke-width="2" stroke-linecap="round" stroke-linejoin="round"/></svg><svg fill="none" viewBox="0 0 25 33" id="i-ad-3" xmlns="http://www.w3.org/2000/svg"><path clip-rule="evenodd" d="M12.5 31.431l1.172-1.32a95.991 95.991 0 003.59-4.342l.878-1.159c3.668-4.942 5.503-8.864 5.503-11.763 0-6.188-4.988-11.204-11.143-11.204-6.154 0-11.143 5.016-11.143 11.204 0 2.899 1.835 6.821 5.503 11.763l.879 1.159a101.878 101.878 0 004.761 5.664v-.002z" stroke="#15969E" stroke-width="2" stroke-linecap="round" stroke-linejoin="round"/><path d="M12.5 17.428a4.643 4.643 0 100-9.285 4.643 4.643 0 000 9.285z" stroke="#15969E" stroke-width="2" stroke-linecap="round" stroke-linejoin="round"/></svg><svg fill="none" viewBox="0 0 33 33" id="i-ad-4" xmlns="http://www.w3.org/2000/svg"><path d="M1.643 16.5L16.5 23.928 31.388 16.5M1.643 23.928l14.857 7.43 14.888-7.43M1.643 9.364L16.515 16.5l14.873-7.137-14.873-7.72-14.872 7.72z" stroke="#15969E" stroke-width="2" stroke-linecap="round" stroke-linejoin="round"/></svg><svg fill="none" viewBox="0 0 10 12" id="i-location" xmlns="http://www.w3.org/2000/svg"><path d="M5 .167A4.08 4.08 0 00.917 4.25C.917 7.312 5 11.833 5 11.833s4.084-4.52 4.084-7.583A4.08 4.08 0 005 .167zM2.084 4.25a2.918 2.918 0 015.833 0c0 1.68-1.68 4.194-2.917 5.763-1.213-1.557-2.916-4.1-2.916-5.763z" fill="#fff"/><path d="M5 5.708a1.458 1.458 0 100-2.916 1.458 1.458 0 000 2.916z" fill="#fff"/></svg><svg fill="none" viewBox="0 0 18 14" id="i-mail" xmlns="http://www.w3.org/2000/svg"><path d="M18 1.75C18 .787 17.19 0 16.2 0H1.8C.81 0 0 .787 0 1.75v10.5C0 13.213.81 14 1.8 14h14.4c.99 0 1.8-.787 1.8-1.75V1.75zm-1.8 0L9 6.125 1.8 1.75h14.4zm0 10.5H1.8V3.5L9 7.875 16.2 3.5v8.75z" fill="#15969E"/></svg><svg fill="none" viewBox="0 0 14 14" id="i-message" xmlns="http://www.w3.org/2000/svg"><path d="M3.677 11.546l.507.296a5.6 5.6 0 10-2.025-2.025l.295.507-.457 1.68 1.68-.458zM.003 14l.946-3.478a7 7 0 112.53 2.53L.003 14zm4.47-10.284a2.37 2.37 0 01.283-.003l.113.011c.112.013.234.08.275.174.209.474.412.95.608 1.428.043.107.017.243-.065.376-.057.09-.118.177-.184.26-.08.102-.25.288-.25.288s-.069.083-.042.186a.62.62 0 00.071.143l.042.067c.179.299.42.602.714.887.084.082.165.165.254.243.327.289.698.525 1.099.7l.003.001.176.077c.044.018.089.034.134.046a.245.245 0 00.257-.09c.507-.615.553-.655.557-.655v.002a.337.337 0 01.265-.09c.042.004.085.011.124.029.371.17.98.435.98.435l.407.183c.069.033.131.11.133.185.003.047.007.123-.009.262a1.95 1.95 0 01-.131.513.808.808 0 01-.148.211c-.07.074-.147.142-.23.202a2.576 2.576 0 01-.088.063 3.516 3.516 0 01-.268.154c-.18.095-.38.15-.583.16-.13.008-.26.018-.39.01l-.397-.06A6.614 6.614 0 015.495 8.68c-.158-.139-.304-.289-.454-.438-.623-.62-1.094-1.288-1.38-1.92a2.429 2.429 0 01-.231-.989 1.91 1.91 0 01.395-1.176c.05-.066.1-.134.183-.214a.891.891 0 01.205-.16.673.673 0 01.26-.07v.002z" fill="#27AB3C"/></svg><svg fill="none" viewBox="0 0 14 14" id="i-phone" xmlns="http://www.w3.org/2000/svg"><path d="M13.222 9.722a8.835 8.835 0 01-2.776-.443.868.868 0 00-.242-.039.797.797 0 00-.552.226l-1.71 1.71a11.702 11.702 0 01-5.126-5.125l1.71-1.719a.747.747 0 00.195-.778A8.835 8.835 0 014.278.778.78.78 0 003.5 0H.778A.78.78 0 000 .778C0 8.08 5.919 14 13.222 14a.78.78 0 00.778-.778V10.5a.78.78 0 00-.778-.778zM1.58 1.556h1.167c.054.684.17 1.36.35 2.006l-.934.941a11.937 11.937 0 01-.583-2.947zM12.444 12.42a11.59 11.59 0 01-2.955-.591l.933-.933a9.926 9.926 0 002.022.35v1.174zm-.777-10.088V0H10.11v2.333H7.778V3.89h2.333v2.333h1.556V3.89H14V2.333h-2.333z" fill="#15969E"/></svg><svg fill="none" viewBox="0 0 18 18" id="i-search" xmlns="http://www.w3.org/2000/svg"><path d="M11.105.167a6.77 6.77 0 00-5.138 11.18l-5.879 5.88.736.736 5.88-5.88a6.771 6.771 0 104.4-11.916zm0 1.041a5.73 5.73 0 110 11.46 5.73 5.73 0 010-11.46z" fill="#5A5A5A"/></svg></svg>